<?xml version="1.0" encoding="UTF-8"?>
<svg width="232px" height="58.5px" viewBox="0 0 464 117" version="1.1" xmlns="http://www.w3.org/2000/svg" xmlns:xlink="http://www.w3.org/1999/xlink">
    <!-- Generator: Sketch 57.1 (83088) - https://sketch.com -->
    <title>TRYBE-COLOR-LIGHT-BG</title>
    <desc>Created with Sketch.</desc>
    <g id="BRAND-ASSETS" stroke="none" stroke-width="1" fill="none" fill-rule="evenodd">
        <g id="LIGHT" transform="translate(-277.000000, -454.000000)">
            <g id="TRYBE-COLOR-LIGHT-BG" transform="translate(277.000000, 454.000000)">
                <g id="BRAND">
                    <g>
                        <polygon id="E" fill="#181A18" fill-rule="nonzero" points="464 88.7086957 464 106 392 106 392 9 462.59375 9 462.59375 26.1507246 414.078125 26.1507246 414.078125 48.784058 459.359375 48.784058 459.359375 65.9347826 414.078125 65.9347826 414.078125 88.7086957"></polygon>
                        <path d="M343.928863,9.00042248 C348.10817,9.00464726 350.582278,9.05111989 355.012658,9.56231884 C370.607595,11.5304348 379.518987,21.0898551 379.518987,34.0231884 C379.518987,43.442029 374.506329,50.1898551 364.898734,53.5637681 C377.151899,56.7971014 383,64.6695652 383,76.9 C383,94.8942029 369.075949,103.750725 356.126582,105.437681 C351.392405,106 348.189873,106 342.481013,106 L306,106 L306,9 L343.928863,9.00042248 Z M343.172414,64.0005612 L328,64 L328,89 L343.172414,89 C345.37931,89 347.586207,89 349.37931,88.8563218 C355.034483,88.4252874 360,84.1149425 360,76.6436782 C360,68.5977011 355.034483,64.862069 348.965517,64.2873563 C347.034483,64.0359195 345.103448,64.0044899 343.172414,64.0005612 Z M340.748792,26 L328,26 L328,48 L341.169082,48 C343.410628,48 345.652174,47.8589744 347.613527,47.5769231 C353.637681,46.5897436 357,43.3461538 357,36.8589744 C357,30.3717949 353.217391,27.2692308 347.47343,26.4230769 C345.512077,26.1410256 342.990338,26 340.748792,26 Z" id="B" fill="#181A18" fill-rule="nonzero"></path>
                        <g id="Y" transform="translate(184.000000, 0.000000)" fill="#0FA36B">
                            <path d="M110,0 L110,117 L0,117 L0,0 L110,0 Z M37.7465008,17 L16,17 L45.9782271,68.2434783 L45.9782271,100 L65.1446345,100 L65.1446345,68.0028986 L95,17 L73.8678072,17 L56.1757387,51.6434783 L37.7465008,17 Z M67,17 L44,17 L55.7346939,38 L67,17 Z" id="Combined-Shape"></path>
                        </g>
                        <path d="M146.549296,9.70289855 C160.633803,11.3898551 172.323944,18.4188406 172.323944,35.4289855 C172.323944,47.8 165.28169,55.8130435 153.028169,59.3275362 C162.887324,62.9826087 166.690141,70.7144928 167.816901,81.9608696 C169.084507,93.3478261 171.056338,100.376812 175,106 L150.915493,106 C148.521127,99.2521739 147.112676,93.4884058 146.267606,85.3347826 C145,74.7913043 140.915493,68.6057971 133.591549,68.0434783 C130.915493,67.9028986 128.521127,67.9028986 125.84507,67.9028986 L117.112676,67.9028986 L117.112676,106 L95,106 L95,9 L131.901408,9 C137.676056,9 141.478873,9.14057971 146.549296,9.70289855 Z M129.210526,26 L117,26 L117,52 L128.368421,52 C131.45614,52 133.842105,52 135.807018,51.8571429 C142.964912,51.1428571 149,48 149,39 C149,30 143.807018,27.1428571 136.649123,26.2857143 C134.684211,26.1428571 132.298246,26 129.210526,26 Z" id="R" fill="#181A18" fill-rule="nonzero"></path>
                        <polygon id="T" fill="#181A18" fill-rule="nonzero" points="87 26.1507246 54.5162338 26.1507246 54.5162338 106 32.4837662 106 32.4837662 26.1507246 0 26.1507246 0 9 87 9"></polygon>
                    </g>
                </g>
            </g>
        </g>
    </g>
</svg>
